<svg width="41" height="19" viewBox="0 0 41 19" fill="none" xmlns="http://www.w3.org/2000/svg">
<path d="M2.70282 18.7119C2.70282 18.8796 2.55636 19 2.4099 19H0.317049C0.146458 19 0 18.8796 0 18.7119V0.289703C0 0.169327 0.146458 0.0248774 0.317049 0.0248774H2.41074C2.55719 0.0248774 2.70365 0.169327 2.70365 0.289703L2.70282 18.7119ZM8.18086 18.7119C8.18086 18.8796 8.0344 19 7.88794 19H5.79509C5.6245 19 5.47887 18.8796 5.47887 18.7119V0.289703C5.47887 0.169327 5.6245 0.0248774 5.79509 0.0248774H7.88878C8.03523 0.0248774 8.18169 0.169327 8.18169 0.289703L8.18086 18.7119ZM13.6589 18.7119C13.6589 18.8796 13.5133 19 13.366 19H11.2723C11.1017 19 10.9561 18.8796 10.9561 18.7119V0.289703C10.9561 0.169327 11.1017 0.0248774 11.2723 0.0248774H13.366C13.5133 0.0248774 13.6589 0.169327 13.6589 0.289703V18.7119ZM19.1611 18.7119C19.1611 18.8796 19.0146 19 18.869 19H16.7753C16.6047 19 16.4583 18.8796 16.4583 18.7119V0.289703C16.4583 0.169327 16.6047 0.0248774 16.7753 0.0248774H18.869C19.0146 0.0248774 19.1611 0.169327 19.1611 0.289703V18.7119ZM40.7079 0C40.8777 0 41 0.146055 41 0.289703V2.36657C41 2.5359 40.8785 2.68035 40.7079 2.68035H22.131C22.0095 2.68035 21.8639 2.5359 21.8639 2.36657V0.289703C21.8639 0.145252 22.0104 0 22.131 0H40.7079ZM40.7079 5.457C40.8777 5.457 41 5.60226 41 5.74671V7.82277C41 7.9913 40.8785 8.13655 40.7079 8.13655H22.131C22.0095 8.13655 21.8639 7.9913 21.8639 7.82277V5.74671C21.8639 5.60145 22.0104 5.457 22.131 5.457H40.7079ZM40.7079 10.8891C40.8777 10.8891 41 11.0336 41 11.1788V13.2541C41 13.425 40.8785 13.5695 40.7079 13.5695H22.131C22.0095 13.5695 21.8639 13.425 21.8639 13.2541V11.1788C21.8639 11.0328 22.0104 10.8891 22.131 10.8891H40.7079ZM40.7079 16.3196C40.8777 16.3196 41 16.4657 41 16.6094V18.6862C41 18.8555 40.8785 19 40.7079 19H22.131C22.0095 19 21.8639 18.8555 21.8639 18.6862V16.6094C21.8639 16.4649 22.0104 16.3196 22.131 16.3196H40.7079Z" fill="white"/>
</svg>
