<?xml version="1.0" encoding="utf-8"?>
<!-- Generator: Adobe Illustrator 28.0.0, SVG Export Plug-In . SVG Version: 6.00 Build 0)  -->
<svg version="1.1" id="Layer_1" xmlns="http://www.w3.org/2000/svg" xmlns:xlink="http://www.w3.org/1999/xlink" x="0px" y="0px"
	 viewBox="0 0 20 20" style="enable-background:new 0 0 20 20;" xml:space="preserve">
<g>
	<path d="M18,0H2C0.9,0,0,0.9,0,2v16c0,1.1,0.9,2,2,2h16c1.1,0,2-0.9,2-2V2C20,0.9,19.1,0,18,0z M3.5,13.6c0,0.1-0.1,0.1-0.1,0.1
		H2.6c-0.1,0-0.1,0-0.1-0.1V6.4c0,0,0.1-0.1,0.1-0.1h0.8c0.1,0,0.1,0.1,0.1,0.1L3.5,13.6z M5.5,13.6c0,0.1-0.1,0.1-0.1,0.1H4.6
		c-0.1,0-0.1,0-0.1-0.1V6.4c0,0,0.1-0.1,0.1-0.1h0.8c0.1,0,0.1,0.1,0.1,0.1L5.5,13.6z M7.5,13.6c0,0.1-0.1,0.1-0.1,0.1H6.6
		c-0.1,0-0.1,0-0.1-0.1V6.4c0,0,0.1-0.1,0.1-0.1h0.8c0.1,0,0.1,0.1,0.1,0.1V13.6z M9.5,13.6c0,0.1-0.1,0.1-0.1,0.1H8.6
		c-0.1,0-0.1,0-0.1-0.1V6.4c0,0,0.1-0.1,0.1-0.1h0.8c0.1,0,0.1,0.1,0.1,0.1V13.6z M17.5,13.6c0,0.1,0,0.1-0.1,0.1h-6.8
		c0,0-0.1-0.1-0.1-0.1v-0.8c0-0.1,0.1-0.1,0.1-0.1h6.8c0.1,0,0.1,0.1,0.1,0.1V13.6z M17.5,11.5c0,0.1,0,0.1-0.1,0.1h-6.8
		c0,0-0.1-0.1-0.1-0.1v-0.8c0-0.1,0.1-0.1,0.1-0.1h6.8c0.1,0,0.1,0.1,0.1,0.1V11.5z M17.5,9.3c0,0.1,0,0.1-0.1,0.1h-6.8
		c0,0-0.1-0.1-0.1-0.1V8.5c0-0.1,0.1-0.1,0.1-0.1h6.8c0.1,0,0.1,0.1,0.1,0.1V9.3z M17.5,7.2c0,0.1,0,0.1-0.1,0.1h-6.8
		c0,0-0.1-0.1-0.1-0.1V6.4c0-0.1,0.1-0.1,0.1-0.1h6.8c0.1,0,0.1,0.1,0.1,0.1V7.2z"/>
</g>
</svg>
