<svg width="25" height="25" viewBox="0 0 25 25" fill="none" xmlns="http://www.w3.org/2000/svg">
<path d="M1.64806 18.8029C1.64806 18.9176 1.55876 19 1.46945 19H0.19332C0.0892998 19 0 18.9176 0 18.8029V6.1982C0 6.1159 0.0892998 6.017 0.19332 6.017H1.46996C1.55927 6.017 1.64857 6.1159 1.64857 6.1982L1.64806 18.8029ZM4.9883 18.8029C4.9883 18.9176 4.899 19 4.8097 19H3.5336C3.4296 19 3.3408 18.9176 3.3408 18.8029V6.1982C3.3408 6.1159 3.4296 6.017 3.5336 6.017H4.8102C4.8995 6.017 4.9888 6.1159 4.9888 6.1982L4.9883 18.8029ZM8.3286 18.8029C8.3286 18.9176 8.2398 19 8.15 19H6.8734C6.7693 19 6.6805 18.9176 6.6805 18.8029V6.1982C6.6805 6.1159 6.7693 6.017 6.8734 6.017H8.15C8.2398 6.017 8.3286 6.1159 8.3286 6.1982V18.8029ZM11.6836 18.8029C11.6836 18.9176 11.5943 19 11.5055 19H10.2288C10.1248 19 10.0355 18.9176 10.0355 18.8029V6.1982C10.0355 6.1159 10.1248 6.017 10.2288 6.017H11.5055C11.5943 6.017 11.6836 6.1159 11.6836 6.1982V18.8029ZM24.8219 6C24.9254 6 25 6.0999 25 6.1982V7.6192C25 7.7351 24.9259 7.8339 24.8219 7.8339H13.4945C13.4204 7.8339 13.3316 7.7351 13.3316 7.6192V6.1982C13.3316 6.0994 13.4209 6 13.4945 6H24.8219ZM24.8219 9.7337C24.9254 9.7337 25 9.8331 25 9.932V11.3524C25 11.4677 24.9259 11.5671 24.8219 11.5671H13.4945C13.4204 11.5671 13.3316 11.4677 13.3316 11.3524V9.932C13.3316 9.8326 13.4209 9.7337 13.4945 9.7337H24.8219ZM24.8219 13.4505C24.9254 13.4505 25 13.5493 25 13.6487V15.0686C25 15.1855 24.9259 15.2844 24.8219 15.2844H13.4945C13.4204 15.2844 13.3316 15.1855 13.3316 15.0686V13.6487C13.3316 13.5487 13.4209 13.4505 13.4945 13.4505H24.8219ZM24.8219 17.1661C24.9254 17.1661 25 17.266 25 17.3643V18.7853C25 18.9012 24.9259 19 24.8219 19H13.4945C13.4204 19 13.3316 18.9012 13.3316 18.7853V17.3643C13.3316 17.2655 13.4209 17.1661 13.4945 17.1661H24.8219Z" fill="white"/>
</svg>
