<svg width="40" height="40" viewBox="0 0 40 40" fill="none" xmlns="http://www.w3.org/2000/svg">
<rect width="40" height="40" rx="8" fill="black"/>
<path d="M8.64806 25.8029C8.64806 25.9176 8.55876 26 8.46945 26H7.19332C7.0893 26 7 25.9176 7 25.8029V13.1982C7 13.1159 7.0893 13.017 7.19332 13.017H8.46996C8.55927 13.017 8.64857 13.1159 8.64857 13.1982L8.64806 25.8029ZM11.9883 25.8029C11.9883 25.9176 11.899 26 11.8097 26H10.5336C10.4296 26 10.3408 25.9176 10.3408 25.8029V13.1982C10.3408 13.1159 10.4296 13.017 10.5336 13.017H11.8102C11.8995 13.017 11.9888 13.1159 11.9888 13.1982L11.9883 25.8029ZM15.3286 25.8029C15.3286 25.9176 15.2398 26 15.15 26H13.8734C13.7693 26 13.6805 25.9176 13.6805 25.8029V13.1982C13.6805 13.1159 13.7693 13.017 13.8734 13.017H15.15C15.2398 13.017 15.3286 13.1159 15.3286 13.1982V25.8029ZM18.6836 25.8029C18.6836 25.9176 18.5943 26 18.5055 26H17.2288C17.1248 26 17.0355 25.9176 17.0355 25.8029V13.1982C17.0355 13.1159 17.1248 13.017 17.2288 13.017H18.5055C18.5943 13.017 18.6836 13.1159 18.6836 13.1982V25.8029ZM31.8219 13C31.9254 13 32 13.0999 32 13.1982V14.6192C32 14.7351 31.9259 14.8339 31.8219 14.8339H20.4945C20.4204 14.8339 20.3316 14.7351 20.3316 14.6192V13.1982C20.3316 13.0994 20.4209 13 20.4945 13H31.8219ZM31.8219 16.7337C31.9254 16.7337 32 16.8331 32 16.932V18.3524C32 18.4677 31.9259 18.5671 31.8219 18.5671H20.4945C20.4204 18.5671 20.3316 18.4677 20.3316 18.3524V16.932C20.3316 16.8326 20.4209 16.7337 20.4945 16.7337H31.8219ZM31.8219 20.4505C31.9254 20.4505 32 20.5493 32 20.6487V22.0686C32 22.1855 31.9259 22.2844 31.8219 22.2844H20.4945C20.4204 22.2844 20.3316 22.1855 20.3316 22.0686V20.6487C20.3316 20.5487 20.4209 20.4505 20.4945 20.4505H31.8219ZM31.8219 24.1661C31.9254 24.1661 32 24.266 32 24.3643V25.7853C32 25.9012 31.9259 26 31.8219 26H20.4945C20.4204 26 20.3316 25.9012 20.3316 25.7853V24.3643C20.3316 24.2655 20.4209 24.1661 20.4945 24.1661H31.8219Z" fill="white"/>
</svg>
